<?xml version="1.0" standalone="no"?>
<!DOCTYPE svg PUBLIC "-//W3C//DTD SVG 20010904//EN"
 "http://www.w3.org/TR/2001/REC-SVG-20010904/DTD/svg10.dtd">
<svg version="1.0" xmlns="http://www.w3.org/2000/svg"
 width="261.000000pt" height="261.000000pt" viewBox="0 0 261.000000 261.000000"
 preserveAspectRatio="xMidYMid meet">
<metadata>
Created by potrace 1.11, written by Peter Selinger 2001-2013
</metadata>
<g transform="translate(0.000000,261.000000) scale(0.100000,-0.100000)"
fill="#000000" stroke="none">
<path d="M555 2381 c-112 -29 -237 -105 -335 -202 -119 -119 -179 -206 -195
-286 -16 -82 33 -163 100 -163 41 0 66 22 154 130 108 133 259 219 318 182 37
-24 40 -154 7 -397 -8 -60 -21 -162 -29 -225 -9 -63 -20 -135 -25 -160 -5 -25
-12 -72 -16 -105 -3 -33 -10 -73 -14 -90 -5 -16 -14 -66 -20 -110 -11 -72 -19
-125 -50 -320 -33 -206 -21 -324 37 -375 42 -37 66 -43 153 -38 80 4 115 24
143 81 17 34 27 83 73 382 74 468 209 873 373 1115 155 230 410 320 497 176
24 -39 24 -179 0 -282 -9 -38 -20 -89 -26 -114 -5 -25 -16 -74 -24 -110 -8
-36 -22 -101 -31 -145 -10 -44 -23 -107 -30 -140 -60 -270 -68 -328 -68 -475
0 -104 3 -136 22 -190 42 -120 115 -208 211 -252 25 -12 56 -26 69 -32 14 -6
81 -11 160 -10 149 0 187 10 300 76 74 44 254 222 275 272 10 24 16 68 16 116
0 70 -2 80 -26 104 -18 17 -37 26 -59 26 -27 0 -45 -14 -121 -91 -111 -113
-163 -151 -237 -174 -51 -16 -63 -16 -100 -4 -56 18 -102 65 -117 120 -22 78
-10 166 80 584 4 22 15 74 24 115 9 41 23 107 31 145 8 39 25 115 37 170 17
78 22 134 23 255 l0 155 -36 75 c-37 77 -97 144 -154 172 -83 42 -88 43 -234
43 -155 0 -186 -6 -295 -61 -158 -79 -286 -228 -408 -474 -21 -41 -35 -61 -31
-45 4 17 7 104 7 195 1 139 -2 173 -18 215 -26 69 -49 99 -104 137 -46 32 -50
33 -162 35 -63 1 -128 -2 -145 -6z"/>
</g>
</svg>
