<?xml version="1.0" encoding="UTF-8" standalone="no"?>
<svg width="150px" height="23px" viewBox="0 0 150 23" version="1.1" xmlns="http://www.w3.org/2000/svg" xmlns:xlink="http://www.w3.org/1999/xlink">
    <!-- Generator: Sketch 49.3 (51167) - http://www.bohemiancoding.com/sketch -->
    <title>nombler@1.5x</title>
    <desc>Created with Sketch.</desc>
    <defs></defs>
    <g id="Splash" stroke="none" stroke-width="1" fill="none" fill-rule="evenodd">
        <g id="Desktop-HD-Copy-5" transform="translate(-54.000000, -61.000000)" fill="#FFFFFF">
            <path d="M73.5058819,84 L71.0758819,84 L60.4558819,73.35 L60.4558819,84 L54.5458819,84 L54.5458819,61.5 L56.9458819,61.5 L67.5958819,72.12 L67.5958819,61.5 L73.5058819,61.5 L73.5058819,84 Z M76.3270585,72.78 C76.3270585,66.57 81.3370585,61.5 87.5470585,61.5 C93.7570585,61.5 98.7970585,66.57 98.7970585,72.78 C98.7970585,78.99 93.7570585,84 87.5470585,84 C81.3370585,84 76.3270585,78.99 76.3270585,72.78 Z M92.9170585,72.75 C92.9170585,69.78 90.5170585,67.38 87.5470585,67.38 C84.6070585,67.38 82.2070585,69.78 82.2070585,72.75 C82.2070585,75.69 84.6070585,78.12 87.5470585,78.12 C90.5170585,78.12 92.9170585,75.69 92.9170585,72.75 Z M103.818235,61.5 L112.998235,69.84 L122.148235,61.5 L124.818235,61.5 L124.818235,84 L118.878235,84 L118.878235,72.45 L112.998235,77.82 L107.088235,72.48 L107.088235,84 L101.148235,84 L101.148235,61.5 L103.818235,61.5 Z M134.499412,79.14 L138.459412,79.14 C139.539412,79.14 140.409412,78.27 140.409412,77.19 C140.409412,76.11 139.479412,75.24 138.459412,75.24 L134.499412,75.24 L134.499412,79.14 Z M134.499412,70.29 L137.349412,70.29 C138.429412,70.29 139.299412,69.42 139.299412,68.34 C139.299412,67.26 138.429412,66.39 137.349412,66.39 L134.499412,66.39 L134.499412,70.29 Z M139.689412,84 L128.589412,84 L128.589412,61.5 L138.519412,61.5 C142.119412,61.5 145.179412,64.59 145.179412,68.19 C145.179412,69.72 144.609412,71.13 143.739412,72.24 C145.269412,73.47 146.289412,75.36 146.289412,77.4 C146.289412,80.97 143.259412,84 139.689412,84 Z M149.070588,84 L149.070588,61.5 L154.980588,61.5 L154.980588,78.06 L163.080588,78.06 L163.080588,84 L149.070588,84 Z M166.551765,84 L166.551765,61.5 L180.531765,61.5 L180.531765,66.39 L172.461765,66.39 L172.461765,70.05 L179.601765,70.05 L179.601765,75.03 L172.461765,75.03 L172.461765,79.17 L180.531765,79.17 L180.531765,84 L166.551765,84 Z M203.862942,84 L197.052942,84 L193.572942,78.03 L189.912942,78.03 L189.912942,84 L184.002942,84 L184.002942,61.5 L193.482942,61.5 C198.042942,61.5 201.762942,65.22 201.762942,69.78 C201.762942,72.18 200.712942,74.34 199.092942,75.84 L203.862942,84 Z M189.912942,66.48 L189.912942,72.93 L193.572942,72.93 C195.372942,72.93 196.812942,71.52 196.812942,69.72 C196.812942,67.92 195.372942,66.48 193.572942,66.48 L189.912942,66.48 Z" id="nombler"></path>
        </g>
    </g>
</svg>